<svg xmlns="http://www.w3.org/2000/svg" width="813.77" height="1146.79" viewBox="0 0 813.77 1146.79"><defs><style>.cls-1{fill:#c9182b;}.cls-1,.cls-2,.cls-3{stroke:#1d1d1b;stroke-miterlimit:10;}.cls-2{fill:#f8e928;}.cls-3{fill:#ca9e67;opacity:0.92;}.cls-4{fill:#1d1d1b;}.cls-5{fill:#ca83b7;}.cls-6{fill:#b5191e;}.cls-7{fill:#fff;}.cls-8{fill:#0a3f1f;}.cls-9{fill:#ffed00;}.cls-10{fill:#a3195b;}.cls-11{fill:#951b81;}</style></defs><g id="Layer_4" data-name="Layer 4"><path class="cls-1" d="M813.25,709.12c.13-23.78.12-62.19-10.65-111-4.5-20.39-45.34-195.9-157.07-254.15a71.85,71.85,0,0,0,12.28-14.78c31.49-49.38,7-119.12-1.61-143.73C619.67,81.3,511.1-1,390.52.52c-168.21,2.12-253.95,166-266.08,190.22C106.79,226,65.18,309,96.65,358.78a48.2,48.2,0,0,0,21.08,18.87C47.19,438.59,12.67,550.88,3.5,625.25c-4.91,39.79-2.71,69.93-1,92,3,38,18.25,233.24,139.42,317.88,15,10.52,34.13,17.35,59,21.75a47.23,47.23,0,0,0-7.22,25.39c0,.3-26.25,39.18-26.25,39.48.08,24.92,137.94,7.12,161.44,6.77,133.35-2,143,10.62,276.39,8.65,23.5-.35,96.86,22.33,96.78-2.59l-23.22-59.49a46.09,46.09,0,0,0-9.73-28.46c18.59-5.77,33.42-13.48,45.25-23.83C812,937.41,812.93,765.8,813.25,709.12Z"/><path class="cls-2" d="M155.82,112.09c-23.29,31.07-31.39,105.16-16.56,118.43s47-39.3,70.29-70.37S262,67.5,247.16,54.23,179.11,81,155.82,112.09Z"/><path class="cls-2" d="M541.73,124.65c25.33,28.19,82.74,67,96.6,52.07S617.27,98.61,591.94,70.43,520.26,4.94,506.4,19.91,516.4,96.46,541.73,124.65Z"/><path class="cls-3" d="M791.9,575.78l-65.81-27a16.57,16.57,0,0,0-9-1c-37.78-29.42-85.61-44.22-80.83-111.84,23.68-1.57,54.6-2.14,53.35-27.11-1.26-25.17-18-61.44-41.75-59.84-36.74-3.76-89.05,4.42-146.6,3.27h0c57.54-24.78,95.81-67.86,96-116.61.28-75.84-91.76-136.66-205.58-135.84S185.36,162.67,185.08,238.51c-.19,53.14,44.95,98.91,111.15,121.26-39.74,3.39-89,8.68-145.38,17.3-77.43,5.75-59.67,78-29.22,73.4l108.7-3.09c-12.28,26.53-52,91.26-90.68,97.36-23.47,3.71-35.86,15.79-41.84,30.61l-66,12.42c-9.62,1.81-16.13,11.54-14.52,21.74h0c1.61,10.19,10.71,17,20.34,15.17l55.83-10.5c1.85,20.91,8.36,38.46,8.15,39-39.73,94.73,122.28,415,334.36,405.41,199.58-9,285.11-248.39,312.82-346.23,14.34-50.66,14.71-85.48,7.15-111l22.9,9.42c9.07,3.73,19.35-1.08,23-10.74h0C805.39,590.36,801,579.51,791.9,575.78Z"/><path class="cls-4" d="M165.87,255.69m19.47-11.48,54.35-32.05.06,0,36.57-17.39a2.79,2.79,0,0,0,.63-.4L303,173a3.45,3.45,0,0,0,1-1.36l8.51-20.4a3,3,0,0,1,4-1.79l44.07,20.14a2.73,2.73,0,0,1,.47.27l30.47,21.31a3,3,0,0,0,1.16.48l45.35,7.76a2.76,2.76,0,0,0,.64,0l60.93-3.55a2.72,2.72,0,0,1,.64,0l40.95,7.14a2.88,2.88,0,0,1,.75.25l26.39,12.82a3.41,3.41,0,0,1,.71.48l19.73,18a3.4,3.4,0,0,1,1,1.62h0c1,3.6,5.73,3,6.06-.79l3.36-37.65a3.74,3.74,0,0,0-.34-1.93L575.18,146a3.14,3.14,0,0,0-1-1.2L520.9,104.11a3,3,0,0,0-.82-.44L446,78.2a2.58,2.58,0,0,0-1.14-.14l-74.24,6.16a2.52,2.52,0,0,0-.71.16L263,122.23a3,3,0,0,0-.9.5l-54.13,43.68a3.59,3.59,0,0,0-.69.76l-27.64,41.3a3.82,3.82,0,0,0-.47,1"/><path class="cls-4" d="M569.91,255.61c1-1.57-28.86-36.8-75.36-44.26-11.43-1.84-39.64-4.52-68.45,11.11-10.23,5.55-22.26,14.34-21.22,16.77,1.91,4.43,42.1-24.53,89.54-19.92C540.2,223.75,568.94,257.15,569.91,255.61Z"/><path class="cls-4" d="M238.5,261.59c-.83-1.16,21.48-30,57.7-38.19,8.9-2,30.92-5.59,54,5,8.19,3.74,17.89,9.9,17.14,11.83-1.36,3.52-33.75-16.72-70.78-10.65C260.8,235.4,239.3,262.72,238.5,261.59Z"/><ellipse class="cls-5" cx="506.72" cy="305.21" rx="27.28" ry="25.69" transform="translate(157.74 782.84) rotate(-84.91)"/><ellipse class="cls-5" cx="275.06" cy="311.4" rx="26.73" ry="25.18" transform="translate(-59.53 557.73) rotate(-84.91)"/><path class="cls-6" d="M411.68,320.91c5.37-8.34,9.36-4.88,16.79-4.66,8.36.24,17.58,9.61,17.51,17.91-.09,11.81-19,20.81-33.42,21.66-13.29.78-32.9-4.75-35-17.75-1.25-7.59,3.52-17.37,10.32-20.2,9.42-3.93,22.57,5.55,23.84,3"/><path class="cls-4" d="M464,308.54c-9.54,3.52-14.29,19-27.12,20.93-33.58,4.9-86.82,5.73-104.3-.21,9.84,5.29,30.09,7.61,49.16,8.88.74.05-4.56-.15,0,0,53.65,1.72,55.83-2.12,59.74-4.81,0,0,4.48,5.09,22.52-24.79h0"/><ellipse class="cls-4" cx="379.97" cy="306.93" rx="4.8" ry="4.52" transform="translate(40.53 658.16) rotate(-84.91)"/><ellipse class="cls-4" cx="424.88" cy="305.06" rx="4.8" ry="4.52" transform="translate(83.32 701.19) rotate(-84.91)"/><path class="cls-4" d="M501.67,242.05a52.67,52.67,0,0,0-42.74,9.45c-6.41,4.69-13.94,12.11-13.3,14.15.53,1.68,5.94-2.36,14.42-7-.47,2.85-.57,6.44-.91,10.31-.85,9.47,4.26,17.66,11.41,18.3s38.87-26.23,40.95-36.22c22.69,7.74,36.5,29.24,37,28.11C549.16,277.86,530.66,248.25,501.67,242.05Zm-14.08,6.84c-2,.38-4.09.77-6,1.16Q484.5,249.33,487.59,248.89Z"/><ellipse class="cls-7" cx="472.44" cy="268.46" rx="5.18" ry="4.88" transform="translate(163.1 715.2) rotate(-84.91)"/><path class="cls-4" d="M247.28,310.19c.7,1.16,13.5-24.24,37.39-35.9C288,284.9,325.43,309.66,333,308s12.42-11.36,10.52-21.57c-.78-4.17-1.25-8.06-2.06-11.1,9.71,3.81,16,7.44,16.41,5.54.49-2.32-8.48-9.34-15.93-13.54a57,57,0,0,0-47.5-4.26C263.52,273.93,246.47,308.83,247.28,310.19Zm69.89-41.26c-2.18-.14-4.44-.29-6.71-.41A67.15,67.15,0,0,1,317.17,268.93Z"/><ellipse class="cls-7" cx="308.64" cy="282.18" rx="5.18" ry="4.88" transform="translate(0.19 564.56) rotate(-84.91)"/><ellipse class="cls-4" cx="545.04" cy="255.71" rx="14.91" ry="2.46" transform="translate(-56.74 237.95) rotate(-23.44)"/><ellipse class="cls-4" cx="536.94" cy="249.7" rx="14.91" ry="2.46" transform="translate(-55.02 234.23) rotate(-23.44)"/><ellipse class="cls-4" cx="524.27" cy="243.67" rx="14.91" ry="2.46" transform="translate(-53.67 228.69) rotate(-23.44)"/><ellipse class="cls-4" cx="512.68" cy="238.3" rx="14.91" ry="2.46" transform="translate(-52.49 223.64) rotate(-23.44)"/><ellipse class="cls-4" cx="244.07" cy="300.75" rx="14.91" ry="1.23" transform="translate(-99.32 121.58) rotate(-23.38)"/><ellipse class="cls-4" cx="245.11" cy="289.04" rx="2.46" ry="14.91" transform="translate(-131.3 333.07) rotate(-56.37)"/><ellipse class="cls-4" cx="250.05" cy="278.63" rx="2.46" ry="14.91" transform="translate(-120.42 332.53) rotate(-56.37)"/><ellipse class="cls-4" cx="259.31" cy="272.58" rx="2.46" ry="14.91" transform="translate(-111.26 337.55) rotate(-56.37)"/><polygon class="cls-8" points="233.04 424.52 141.37 394.2 139.18 448.49 233.04 424.52"/><polygon class="cls-9" points="199.3 404.91 294.38 420.16 288.83 366.23 199.3 404.91"/><polygon class="cls-8" points="397.71 364.92 301.96 377.07 320.85 427.34 397.71 364.92"/><polygon class="cls-8" points="550.66 394.14 644.58 415.7 642.24 361.48 550.66 394.14"/><polygon class="cls-9" points="485.47 402.41 545.57 413.48 541.77 376.56 485.47 402.41"/><polygon class="cls-8" points="526.54 380.76 470.6 357.61 466.56 387.69 526.54 380.76"/><polygon class="cls-8" points="109.05 791.3 144.84 739.93 209.23 704.5 255.03 671.14 236.35 736.06 225.88 853.58 199.14 922.67 183.96 939.82 109.05 791.3"/><ellipse class="cls-4" cx="189.25" cy="773.41" rx="89.17" ry="4.21" transform="translate(-559.55 502.69) rotate(-56.37)"/><polygon class="cls-8" points="746.61 557.17 729.83 607.77 694.33 646.21 670.73 678.37 669.92 634.93 652.97 562.64 656.66 514.54 663.24 500.28 746.61 557.17"/><ellipse class="cls-4" cx="695.37" cy="591.86" rx="52.22" ry="4.87" transform="translate(-3.57 1179.5) rotate(-80.46)"/><polygon class="cls-8" points="679.3 617.13 645.1 634.14 596.49 633.3 560.06 637.21 586.54 607.29 619.78 545.74 652.29 516.09 665.75 511.43 679.3 617.13"/><ellipse class="cls-4" cx="631.06" cy="597.42" rx="47.4" ry="5.04" transform="translate(-231.69 493.4) rotate(-36.56)"/><ellipse class="cls-4" cx="638.66" cy="575.52" rx="14.91" ry="2.46" transform="translate(-176.25 301.59) rotate(-23.44)"/><ellipse class="cls-4" cx="611.67" cy="589.86" rx="14.91" ry="2.46" transform="translate(-184.18 292.04) rotate(-23.44)"/><ellipse class="cls-4" cx="171.52" cy="849.29" rx="14.91" ry="2.46" transform="translate(-323.72 138.34) rotate(-23.44)"/><ellipse class="cls-4" cx="190.41" cy="812.25" rx="14.91" ry="2.46" transform="translate(-307.43 142.8) rotate(-23.44)"/><ellipse class="cls-4" cx="215.55" cy="763.67" rx="14.91" ry="2.46" transform="translate(-286.03 148.79) rotate(-23.44)"/><ellipse class="cls-4" cx="721.31" cy="582.89" rx="2.46" ry="14.91" transform="translate(-163.49 860.69) rotate(-56.37)"/><ellipse class="cls-4" cx="592.71" cy="612.47" rx="14.91" ry="2.46" transform="translate(-194.74 286.36) rotate(-23.44)"/><polygon class="cls-6" points="390.97 394.3 320.28 467.01 258.45 497.75 317.23 529.93 380.14 515.8 429.54 445.43 452.48 492.42 499.22 524.74 559.17 522.84 596.12 483.68 506.34 444.83 508.63 419.18 437.61 374.86 390.97 394.3"/><ellipse class="cls-9" cx="432.23" cy="384.18" rx="13.74" ry="24.89" transform="translate(11.2 780.61) rotate(-84.91)"/><polygon class="cls-9" points="400.88 436.5 406.52 381.85 432.88 392.96 400.88 436.5"/><polygon class="cls-9" points="475.87 425.99 432.88 392.96 449.25 377.26 475.87 425.99"/><path class="cls-10" d="M347.69,722c-5.54,12-20.59,14.54-29.2,5L317,725.24c-10.53-11.73-13.76-33-7.83-51.71l4.77-15a18.67,18.67,0,0,1,13-12.61l17.81-4.53a18.05,18.05,0,0,0,9.16-5.71l14.68-16.93a18.09,18.09,0,0,1,8-5.36l13.3-4.43a17,17,0,0,1,15.31,2.3l5.54,3.93c2.84,2,3.83,7.18,2.18,11.44l-28.13,72.72c-3,7.79-10.45,12.63-18.32,11.92l-.9-.08A18,18,0,0,0,347.69,722Z"/><path class="cls-10" d="M327.21,705h0a23.48,23.48,0,0,0-13.42,2.84l-14.36,7.89c-12.59,6.91-17.21,23.58-10.11,36.44l4.07,7.35a28.11,28.11,0,0,1,1.28,2.65l20.39,49.17a26.7,26.7,0,0,1,1.67,5.77l8.38,48.85c2,11.45,10.89,20,21.84,21L360,888.13a24.18,24.18,0,0,0,21.08-9.37l7.95-10.09,11.82-13.55a27.34,27.34,0,0,0,3.36-30.76L346.19,717.72A24.14,24.14,0,0,0,327.21,705Z"/><ellipse class="cls-8" cx="384.64" cy="724.19" rx="41.33" ry="38.87" transform="translate(-370.83 1043.03) rotate(-84.91)"/><ellipse class="cls-4" cx="389.99" cy="710.57" rx="25.52" ry="2.88" transform="translate(-352.39 1035.95) rotate(-84.91)"/><path class="cls-11" d="M414.41,692.83l65.71-24.31a18.75,18.75,0,0,1,8.13-1.09l22.21,2a19,19,0,0,0,20.48-20.89L529.2,629.8a19,19,0,0,0-12.09-16l-24.94-9.53a18.73,18.73,0,0,0-5-1.15l-38.29-3.41a18.75,18.75,0,0,0-11.29,2.6l-25.17,15.13a19.21,19.21,0,0,0-8.24,10.22l-14,41a19.18,19.18,0,0,0,10.26,23.76h0A18.64,18.64,0,0,0,414.41,692.83Z"/><path class="cls-10" d="M547.87,641.93l52.74.28a17.45,17.45,0,0,1,10.93,3.65l32,25.32c5.25,4.15,7.91,11.45,7.37,20.21h0c-1,16.88-13.48,34.82-28.51,41.1l-28.78,12a28.26,28.26,0,0,1-7.58,2l-95.51,11.17-8.63.6c-23.76,1.64-27.24-32.21-5.64-54.82l47.08-49.28C530.81,646.4,539.82,641.89,547.87,641.93Z"/><path class="cls-11" d="M605.79,760.34l5.47,35.24a40,40,0,0,1-5.19,26.68l-11.48,19.1a36.41,36.41,0,0,1-22,16.68h0a34,34,0,0,1-31.07-7.58l-11.08-9.75a34.29,34.29,0,0,0-19.82-8.52l-19.13-1.61A34,34,0,0,0,478.44,832L435,845.74a34.2,34.2,0,0,1-8.72,1.54l-10.52.47a34.83,34.83,0,0,1-31.43-17.41l-.43-.71a39.86,39.86,0,0,1,.5-41.14l4.11-6.6a36.69,36.69,0,0,1,16.86-14.55L469,740.54A34.38,34.38,0,0,1,478.9,738l88.58-8.92C586.08,727.22,602.77,740.83,605.79,760.34Z"/><polygon class="cls-8" points="451.22 922.15 423.71 949.67 377.16 965.12 343.62 980.99 359.95 943.85 373.32 874.53 395.47 835.62 406.9 826.71 451.22 922.15"/><ellipse class="cls-4" cx="399.42" cy="919.64" rx="48.28" ry="4.95" transform="translate(-582.07 714.84) rotate(-54.74)"/><path class="cls-10" d="M409.06,689h0l60.62,36.69a9.9,9.9,0,0,1,3.28,2.09,11.57,11.57,0,0,1,2.41,3.35l6.32,13c3.6,7.42-.25,17-7.48,18.7L460,766.07a11.6,11.6,0,0,0-8,7.65h0c-2.38,6.58-8.85,9.67-14.26,6.8l-23.24-12.36q-48.42,9-50.85-.35-2.91-11.12,59.65-48.31h0Z"/><path class="cls-10" d="M494.61,650l12-24.55c1-1.94,1.13-3.54.51-4.66l-6.56-11.88c-1.08-2-4.49-2.32-9.45-1h0c-9.54,2.5-22.31,10.44-29.24,18.2L448.62,641a26.92,26.92,0,0,0-2.88,3.78L417.52,690.6l-2.32,4.1c-6.39,11.27,11.47,8.84,28.92-3.93l38-27.83C488.2,658.52,492.77,653.78,494.61,650Z"/><path class="cls-10" d="M508.53,704.7,531.71,692c1.84-1,2.85-2.21,3-3.5l1.23-13.79c.2-2.27-2.35-4.68-7.06-6.67h0c-9.07-3.85-23.73-5.23-33.58-3.16l-18.87,4a25.11,25.11,0,0,0-4.4,1.32l-47.94,20.13-4.12,1.92c-11.35,5.29,4.39,14.33,25.48,14.65l46,.7C498.7,707.69,505,706.63,508.53,704.7Z"/><path class="cls-11" d="M497.6,758.88l25.74,3.41c2,.27,3.51-.12,4.3-1.13L536,750.45c1.37-1.75.58-5.28-2.21-9.77h0c-5.37-8.64-16.63-18.6-25.79-22.8l-17.55-8a23.63,23.63,0,0,0-4.3-1.55l-50-12.1-4.4-.88c-12.1-2.43-4.06,14.53,13,27.47L482.05,751C488,755.46,493.67,758.36,497.6,758.88Z"/><path class="cls-11" d="M467.37,798.91l25.74,3.4c2,.27,3.51-.11,4.3-1.12l8.37-10.71c1.37-1.76.57-5.29-2.21-9.78h0c-5.37-8.64-16.63-18.59-25.79-22.79l-17.55-8a24.41,24.41,0,0,0-4.3-1.55l-50-12.09-4.4-.89c-12.1-2.43-4.06,14.54,13,27.48L451.81,791C457.73,795.49,463.44,798.39,467.37,798.91Z"/><path class="cls-11" d="M434.25,823.58,460,827c2,.27,3.51-.11,4.3-1.12l8.37-10.71c1.38-1.76.58-5.29-2.21-9.78h0c-5.36-8.64-16.62-18.59-25.79-22.79l-17.55-8.05a25.24,25.24,0,0,0-4.3-1.55l-50-12.09-4.4-.89c-12.11-2.42-4.07,14.54,13,27.48l37.24,28.2C424.61,820.16,430.32,823.06,434.25,823.58Z"/><path class="cls-10" d="M586.87,846.63,581.56,882a38.92,38.92,0,0,1-12.84,23.66L552.18,920a34.62,34.62,0,0,1-25.76,8.53h0A35.1,35.1,0,0,1,499.29,911l-7.57-13a35.9,35.9,0,0,0-16.22-14.75l-17.61-7.93a33.86,33.86,0,0,0-12.77-3L400,870.84a33.92,33.92,0,0,1-8.71-1.45l-10.08-3.07c-12.19-3.71-21.54-14-24.55-27.1l-.19-.81a39.58,39.58,0,0,1,12.7-39l5.85-4.91a34.89,34.89,0,0,1,20.27-8.21L463.43,782a33.86,33.86,0,0,1,10.08.9l86.42,21.13C578.08,808.5,589.81,827,586.87,846.63Z"/></g></svg>